# xmcd CD database file
#
# Track frame offsets:
#	150
#	10658
#	43064
#	85357
#	121667
#	159474
#
# Disc length: 2640 seconds
#
# Revision: 0
# Processed by: cddbd v1.5.2PL0 Copyright (c) Steve Scherf et al.
# Submitted via: CDex 1.70beta2
#
DISCID=3c0a4e06
DTITLE=Verena Freimuth - Wecke den Buddha in Dir (Weise und zufrieden leben)
DYEAR=2006
DGENRE=Esoteric
TTITLE0=Einleitung
TTITLE1=Loslassen
TTITLE2=Transformation
TTITLE3=Weisheit und Zufriedenheit erfahren
TTITLE4=Weisheit leben
TTITLE5=In der Mitte ruhen
EXTD=YEAR: 2006
EXTT0=
EXTT1=
EXTT2=
EXTT3=
EXTT4=
EXTT5=
PLAYORDER=
